<mxfile host="app.diagrams.net" agent="Mozilla/5.0 (Windows NT 10.0; Win64; x64) AppleWebKit/537.36 (KHTML, like Gecko) Chrome/130.0.0.0 Safari/537.36" version="24.7.17">
  <diagram name="Página-1" id="ijF3RPKuXMmj-ov1BSvK">
    <mxGraphModel dx="1638" dy="1733" grid="0" gridSize="10" guides="1" tooltips="1" connect="1" arrows="1" fold="1" page="0" pageScale="1" pageWidth="827" pageHeight="1169" math="0" shadow="0">
      <root>
        <mxCell id="0" />
        <mxCell id="1" parent="0" />
        <mxCell id="h-pT6bFfDpiv5yTWDlPa-15" value="" style="rounded=0;whiteSpace=wrap;html=1;fillStyle=solid;fillColor=#000000;" vertex="1" parent="1">
          <mxGeometry x="-468" y="-680" width="837" height="797" as="geometry" />
        </mxCell>
        <mxCell id="h-pT6bFfDpiv5yTWDlPa-4" value="" style="edgeStyle=none;curved=1;rounded=0;orthogonalLoop=1;jettySize=auto;html=1;fontSize=12;startSize=8;endSize=8;strokeColor=#FFFFFF;" edge="1" parent="1" source="h-pT6bFfDpiv5yTWDlPa-2" target="h-pT6bFfDpiv5yTWDlPa-3">
          <mxGeometry relative="1" as="geometry" />
        </mxCell>
        <mxCell id="h-pT6bFfDpiv5yTWDlPa-2" value="" style="ellipse;whiteSpace=wrap;html=1;fillColor=#f5f5f5;fontColor=#333333;strokeColor=#666666;" vertex="1" parent="1">
          <mxGeometry x="-69.75" y="-508" width="45" height="45" as="geometry" />
        </mxCell>
        <mxCell id="h-pT6bFfDpiv5yTWDlPa-18" value="" style="edgeStyle=none;curved=1;rounded=0;orthogonalLoop=1;jettySize=auto;html=1;fontSize=12;startSize=8;endSize=8;strokeColor=#FFFFFF;" edge="1" parent="1" source="h-pT6bFfDpiv5yTWDlPa-3" target="h-pT6bFfDpiv5yTWDlPa-17">
          <mxGeometry relative="1" as="geometry" />
        </mxCell>
        <mxCell id="h-pT6bFfDpiv5yTWDlPa-3" value="Funcionando" style="rounded=0;whiteSpace=wrap;html=1;fontColor=#FFFFFF;labelBorderColor=#FFFFFF;strokeColor=#FFFFFF;fillColor=#000000;" vertex="1" parent="1">
          <mxGeometry x="-107.25" y="-375" width="120" height="60" as="geometry" />
        </mxCell>
        <mxCell id="h-pT6bFfDpiv5yTWDlPa-5" value="Se presiona el botón &quot;aumentar&quot;&lt;div&gt;[la licuadora esta apagada] / Encender motor&lt;/div&gt;" style="text;html=1;align=center;verticalAlign=middle;resizable=0;points=[];autosize=1;strokeColor=none;fillColor=none;fontSize=16;fontColor=#FFFFFF;" vertex="1" parent="1">
          <mxGeometry x="-52.25" y="-464.5" width="337" height="50" as="geometry" />
        </mxCell>
        <mxCell id="h-pT6bFfDpiv5yTWDlPa-9" value="" style="curved=1;endArrow=classic;html=1;rounded=0;fontSize=12;startSize=8;endSize=8;exitX=1;exitY=1;exitDx=0;exitDy=0;entryX=1;entryY=0.5;entryDx=0;entryDy=0;labelBorderColor=#FFFFFF;strokeColor=#FFFFFF;" edge="1" parent="1" source="h-pT6bFfDpiv5yTWDlPa-3" target="h-pT6bFfDpiv5yTWDlPa-3">
          <mxGeometry width="50" height="50" relative="1" as="geometry">
            <mxPoint x="-2.75" y="-220" as="sourcePoint" />
            <mxPoint x="47.25" y="-270" as="targetPoint" />
            <Array as="points">
              <mxPoint x="45.25" y="-308" />
              <mxPoint x="61.25" y="-327" />
              <mxPoint x="53.25" y="-345" />
            </Array>
          </mxGeometry>
        </mxCell>
        <mxCell id="h-pT6bFfDpiv5yTWDlPa-10" value="Se presiona botón &quot;aumentar&quot; /&lt;div&gt;aumentar velocidad del motor&lt;/div&gt;" style="text;html=1;align=center;verticalAlign=middle;resizable=0;points=[];autosize=1;strokeColor=none;fillColor=none;fontSize=16;fontColor=#FFFFFF;" vertex="1" parent="1">
          <mxGeometry x="50.75" y="-352" width="240" height="50" as="geometry" />
        </mxCell>
        <mxCell id="h-pT6bFfDpiv5yTWDlPa-13" value="" style="curved=1;endArrow=classic;html=1;rounded=0;fontSize=12;startSize=8;endSize=8;exitX=0;exitY=1;exitDx=0;exitDy=0;strokeColor=#FFFFFF;" edge="1" parent="1" source="h-pT6bFfDpiv5yTWDlPa-3">
          <mxGeometry width="50" height="50" relative="1" as="geometry">
            <mxPoint x="-157.25" y="-295" as="sourcePoint" />
            <mxPoint x="-107.25" y="-345" as="targetPoint" />
            <Array as="points">
              <mxPoint x="-147.75" y="-308" />
              <mxPoint x="-157.25" y="-345" />
            </Array>
          </mxGeometry>
        </mxCell>
        <mxCell id="h-pT6bFfDpiv5yTWDlPa-14" value="Se presiona botón &quot;disminuir&quot; /&lt;div&gt;disminuye velocidad del motor&lt;/div&gt;" style="text;html=1;align=center;verticalAlign=middle;resizable=0;points=[];autosize=1;strokeColor=none;fillColor=none;fontSize=16;fontColor=#FFFFFF;" vertex="1" parent="1">
          <mxGeometry x="-390.75" y="-356" width="237" height="50" as="geometry" />
        </mxCell>
        <mxCell id="h-pT6bFfDpiv5yTWDlPa-17" value="" style="ellipse;shape=doubleEllipse;html=1;dashed=0;whiteSpace=wrap;aspect=fixed;" vertex="1" parent="1">
          <mxGeometry x="-69.75" y="-179" width="45" height="45" as="geometry" />
        </mxCell>
        <mxCell id="h-pT6bFfDpiv5yTWDlPa-19" value="&lt;span style=&quot;color: rgb(255, 255, 255);&quot;&gt;Se presiona botón &quot;disminuir&quot;&amp;nbsp;&lt;/span&gt;&lt;div&gt;&lt;span style=&quot;color: rgb(255, 255, 255);&quot;&gt;[la velocidad del motor es 0] /&amp;nbsp;&lt;/span&gt;&lt;/div&gt;&lt;div&gt;&lt;span style=&quot;color: rgb(255, 255, 255); background-color: initial;&quot;&gt;disminuye velocidad del motor&lt;/span&gt;&lt;/div&gt;" style="text;html=1;align=center;verticalAlign=middle;resizable=0;points=[];autosize=1;strokeColor=none;fillColor=none;fontSize=16;" vertex="1" parent="1">
          <mxGeometry x="-41" y="-275" width="233" height="70" as="geometry" />
        </mxCell>
      </root>
    </mxGraphModel>
  </diagram>
</mxfile>
